<?xml version="1.0" encoding="utf-8"?>
<svg viewBox="0 0 500 500" style="shape-rendering: geometricprecision;" xmlns="http://www.w3.org/2000/svg">
  <defs>
    <clipPath id="id0">
      <path d="M-0 0l6270.25 0 0 6270.25 -6270.25 0 0 -6270.25zm0 0z"/>
    </clipPath>
  </defs>
  <g id="Camada_x0020_1" transform="matrix(0.07974200695753098, 0, 0, 0.07974200695753098, -0.00098700006310537, -0.001164000015705824)">
    <g/>
    <g style="clip-path:url(#id0)">
      <g>
        <path class="fil0" d="M3135.13 5969.66c-1563.65,0 -2834.53,-1270.89 -2834.53,-2834.53 0,-1563.65 1270.89,-2834.53 2834.53,-2834.53 1563.64,0 2835.11,1270.89 2835.11,2834.53 0,1563.64 -1271.47,2834.53 -2835.11,2834.53zm0 -5969.66c-1733.46,0 -3135.13,1402.25 -3135.13,3135.13 0,1733.46 1401.67,3135.12 3135.13,3135.12 1732.88,0 3135.12,-1401.66 3135.12,-3135.12 0,-1732.89 -1402.24,-3135.13 -3135.12,-3135.13z" style="fill: rgb(255, 255, 255); fill-rule: nonzero;"/>
      </g>
    </g>
    <path class="fil1" d="M-0 0l6270.25 0 0 6270.25 -6270.25 0 0 -6270.25zm0 0z" style="fill: none;"/>
    <path class="fil0" d="M4413.78 2326.31l-439.21 -439.21 238.83 -238.83 439.21 439.2 -238.83 238.84zm-2372.46 1555.87l392.98 392.98 -516.06 184.84 123.08 -577.83zm177 -246.09l1540.86 -1540.78 439.2 439.21 -1540.85 1540.27 -439.21 -438.7zm-439.2 15.09l-284.49 1263.56 1147.3 -408.59 2419.27 -2418.69 -847.79 -862.81 -2434.29 2426.53z" style="fill: rgb(255, 255, 255); fill-rule: nonzero;"/>
  </g>
</svg>