<?xml version="1.0" encoding="utf-8"?>
<svg viewBox="0 0 500 500" style="shape-rendering: geometricprecision;" xmlns="http://www.w3.org/2000/svg">
  <defs>
    <clipPath id="clip-1">
      <path d="M-0 0l3916.69 0 0 3938.79 -3916.69 0 0 -3938.79zm0 0z"/>
    </clipPath>
  </defs>
  <g id="g-1" transform="matrix(0.12690600752830505, 0, 0, 0.12690600752830505, 1.4761919975244382, 0.0006160000339150429)">
    <g/>
    <g style="clip-path: url('#clip-1');">
      <g>
        <path class="fil0" d="M1959.57 2842.37c126.26,1.76 227.63,105.58 226.21,231.84 0,2.49 0,4.94 0,7.04 5.28,126.61 -92.23,233.6 -218.83,239.18 -126.26,5.62 -233.94,-92.23 -239.22,-218.84 -0.69,-6.65 -0.69,-13.35 0,-20.34 -5.62,-126.26 92.62,-233.26 219.22,-238.49 4.2,-0.39 8.07,-0.39 12.62,-0.39zm-11.2 -2111.06c5.58,-0.39 11.55,-0.39 17.17,0 141.71,4.21 252.87,122.74 249.05,264.46 0,2.44 -0.73,5.24 -0.73,7.68l-78.92 1371.04 -0.69 0c-7.38,97.51 -92.96,169.78 -190.81,162.05 -85.92,-6.99 -154.68,-75.41 -161.67,-162.05l-80.34 -1371.04c-8.75,-141.33 99.27,-263.04 240.64,-271.8 2.44,0 4.89,-0.34 7.68,-0.34l-1.37 0zm-40.34 -730.63c-1064.48,27.38 -1911.89,900.37 -1908.02,1965.23 -8.76,1081.65 860.71,1965.19 1942.4,1973.94 1081.69,8.76 1965.53,-861.05 1974.29,-1942.4 0,-10.51 0,-21.03 0,-31.55 4.2,-1081.35 -869.81,-1961.71 -1950.81,-1965.57 -18.93,-0.34 -38.2,0 -57.17,0.34l-0.69 0z" style="fill: rgb(255, 255, 255); fill-rule: nonzero;"/>
      </g>
    </g>
    <path class="fil1" d="M-0 0l3916.69 0 0 3938.79 -3916.69 0 0 -3938.79zm0 0z" style="fill: none;"/>
  </g>
</svg>