<?xml version="1.0" encoding="utf-8"?>
<svg viewBox="0 0 500 500" style="shape-rendering: geometricprecision;" xmlns="http://www.w3.org/2000/svg">
  <defs>
    <clipPath id="clip-4" style="clip-rule:nonzero">
      <path d="M1032.87 335.17l1408.97 0 0 2605.78 -1408.97 0 0 -2605.78zm0 0z"/>
    </clipPath>
  </defs>
  <g id="g-4" transform="matrix(0.169956982136, 0, 0, 0.169956982136, -6782.982056906329, -700.480593022286)" style="transform-origin: 8223.04px 843.908px;">
    <path class="fil0" d="M1072.36 1226.79c-31.25,-97.88 -102.61,-181.21 -190.96,-223.02 -170.72,-80.98 -348.7,-70.1 -502.26,-53.62 -19.63,2.13 -36.79,14.23 -45.32,32.03 -8.59,17.83 -7.27,38.82 3.38,55.49 19.05,29.84 46.93,75.41 60.38,100 34.15,62.25 50.21,134.18 62.57,196.66 30,151.24 178.28,295.53 375.93,295.53 20.66,0 41.87,-1.61 63.57,-4.92 31.19,-4.76 52.59,-33.89 47.83,-65.01 -4.76,-31.19 -34.25,-52.72 -65.08,-47.83 -157.23,23.91 -287.26,-84.04 -310.27,-199.97 -14,-70.87 -32.51,-152.88 -74.45,-229.42 -4.25,-7.76 -9.59,-16.99 -15.48,-27.04 131.29,-8.24 244.55,1.1 350.31,51.24 60.22,28.55 109.24,86.32 131.06,154.56 10.04,31.48 16.93,74.19 8.11,123.02 -51.4,-57.1 -113.23,-118.25 -189.48,-183.78 -23.91,-20.6 -59.99,-17.83 -80.5,6.08 -20.6,23.88 -17.83,59.9 6.11,80.5 101.19,87 175.64,164.76 231.35,233.96 3.57,7.66 8.82,14.48 15.55,20.02 106.47,138.01 137.82,240.4 159.23,311.46 2.9,9.69 5.66,18.76 8.37,27.29 -57.52,121.08 -92.47,234.86 -108.21,320.96 -5.66,30.96 14.87,60.7 45.83,66.4 3.54,0.68 6.95,0.9 10.4,0.9 27.04,0 51.08,-19.28 56.1,-46.77 15.19,-83.2 49.69,-194.47 107.69,-312.14 0.77,-1.45 1.45,-2.9 2.12,-4.44 35.7,-71.74 80.63,-145.61 135.12,-217.16 4.57,-0.67 9.17,-1.67 13.68,-3.51 128.49,-52.82 277.28,-19.28 278.73,-18.99 30.64,7.14 61.32,-11.91 68.56,-42.55 7.21,-30.64 -11.84,-61.38 -42.49,-68.65 -4.99,-1.16 -86.65,-19.67 -188.96,-11.69 80.56,-76.51 175.38,-145.09 286.78,-197.72 28.45,-13.49 40.62,-47.5 27.13,-76.02 -13.46,-28.52 -47.47,-40.65 -75.96,-27.2 -64.53,30.48 -123.59,66.11 -178.44,104.99l2.51 -8.63c8.66,-30.29 -8.88,-61.92 -39.11,-70.62 -30.38,-8.69 -61.92,8.82 -70.65,39.11l-47.83 166.59c-0.48,1.77 -0.61,3.51 -0.9,5.25 -74.19,73.61 -137.24,153.04 -188.96,233.44 -27.36,-94.14 -15,-176.99 3.61,-235.34 34.37,-107.63 111.88,-198.91 207.34,-244.13 173.03,-81.82 357.33,-92.31 573.88,-74.83 -16.9,27.78 -33.41,55.81 -44.87,76.73 -60.03,109.56 -86.68,228.07 -106.95,330.48 -21.4,108.02 -81.04,200.97 -163.57,255.04 -89.51,58.51 -202.58,73.45 -335.73,44.19 -30.84,-6.6 -61.25,12.75 -67.98,43.55 -6.73,30.77 12.75,61.25 43.55,67.98 51.4,11.3 101.13,16.93 148.89,16.93 102.61,0 195.56,-25.97 273.74,-77.09 109.59,-71.77 185.33,-188.35 213.07,-328.46 18.64,-94.05 42.84,-202.42 95.14,-297.78 19.63,-35.98 60.99,-103.64 89.86,-148.96 10.62,-16.67 11.91,-37.63 3.32,-55.46 -8.53,-17.77 -25.72,-29.9 -45.32,-31.99 -222.4,-23.88 -480.25,-39.65 -725.86,76.51 -123.53,58.55 -223.5,175.45 -267.3,312.59 -9.69,30.51 -16.06,61.57 -20.02,92.66 -9.85,-14.52 -20.53,-29.51 -31.96,-44.83 36.59,-83.94 41.78,-175.77 14.07,-262.57zm0 0z" style="fill: rgb(255, 255, 255); fill-rule: nonzero;"/>
    <path class="fil0" d="M740.46 2591.76c7.34,3.09 14.84,4.57 22.31,4.57 22.21,0 43.35,-13.04 52.62,-34.76 12.33,-28.97 -1.19,-62.51 -30.22,-74.86 -449.8,-191.67 -716.84,-647.36 -664.48,-1134.01 60,-556.59 525.92,-972.47 1071.47,-985.12l-140.94 113.49c-24.53,19.79 -28.42,55.71 -8.66,80.27 11.3,14 27.81,21.28 44.51,21.28 12.55,0 25.23,-4.12 35.76,-12.62l259.52 -208.98c24.53,-19.79 28.42,-55.71 8.69,-80.27l-209.02 -259.45c-19.73,-24.56 -55.65,-28.45 -80.27,-8.66 -24.53,19.76 -28.39,55.71 -8.66,80.27l128.81 159.87c-615.49,-2.42 -1147.3,462.48 -1214.7,1087.66 -57.81,536.99 236.85,1039.83 733.26,1251.33zm0 0z" style="fill: rgb(255, 255, 255); fill-rule: nonzero;"/>
    <g/>
    <g style="clip-path: url('#clip-4');">
      <g>
        <path class="fil0" d="M1640.89 450.69c449.61,185.97 727.24,654.15 675.1,1138.55 -59.96,556.66 -526.05,972.69 -1071.67,985.12l141.01 -113.52c24.53,-19.79 28.42,-55.74 8.66,-80.27 -19.83,-24.59 -55.75,-28.49 -80.27,-8.66l-259.52 208.98c-11.78,9.53 -19.28,23.3 -20.95,38.33 -1.58,15.06 2.83,30.16 12.29,41.94l209.05 259.48c11.3,14 27.81,21.28 44.45,21.28 12.62,0 25.23,-4.19 35.82,-12.62 24.53,-19.83 28.42,-55.75 8.66,-80.27l-128.9 -160c1.51,0 3.02,0.16 4.54,0.16 613.69,-0.06 1143.15,-464.09 1210.32,-1087.69 57.55,-534.45 -248.8,-1051.07 -744.98,-1256.28 -29.13,-12.01 -62.51,1.87 -74.58,30.96 -12.07,29.03 1.84,62.44 30.96,74.51zm0 0z" style="fill: rgb(255, 255, 255); fill-rule: nonzero;"/>
      </g>
    </g>
    <path class="fil1" d="M1032.87 335.17l1408.97 0 0 2605.78 -1408.97 0 0 -2605.78zm0 0z" style="fill: none; fill-rule: nonzero;"/>
  </g>
</svg>