<?xml version="1.0" encoding="utf-8"?>
<svg viewBox="0 0 500 500" style="shape-rendering: geometricprecision;" xmlns="http://www.w3.org/2000/svg">
  <defs>
    <clipPath id="clip-2">
      <path d="M-0 0l4297.46 0 0 3664.62 -4297.46 0 0 -3664.62zm0 0z"/>
    </clipPath>
  </defs>
  <g id="g-2" transform="matrix(0.116347998380661, 0, 0, 0.116347998380661, -0.00029700002056642916, 36.75081253051755)">
    <g/>
    <g style="clip-path: url('#clip-2');">
      <g>
        <path class="fil0" d="M4037.75 0.5l-3778.13 0c-138.76,0 -251.67,113.09 -251.67,251.67l0 2598.85c0,139.03 112.91,251.94 251.67,251.94l1228.81 0 0 302.67 -32.79 0c-71.57,0 -129.93,58.32 -129.93,129.88 0,71.89 58.36,130.2 129.93,130.2l1385.73 0c71.84,0 129.88,-58.32 129.88,-130.2 0,-71.56 -58.04,-129.88 -129.88,-129.88l-32.38 0 0 -302.67 1228.76 0c138.76,0 251.67,-112.91 251.67,-251.94l0 -2598.85c0,-138.58 -112.91,-251.67 -251.67,-251.67zm56.75 2850.38c0,31.32 -25.57,57.03 -56.75,57.03l-3778.13 0c-31.28,0 -56.71,-25.57 -56.71,-57.03l0 -2598.71c0,-31 25.29,-56.71 56.71,-56.71l3778.13 0c31.04,0 56.75,25.57 56.75,56.71l0 2598.71zm0 0z" style="fill: rgb(255, 255, 255); fill-rule: nonzero;"/>
      </g>
    </g>
    <path class="fil1" d="M-0 0l4297.46 0 0 3664.62 -4297.46 0 0 -3664.62zm0 0z" style="fill: none;"/>
    <path class="fil0" d="M816.76 1697.74l-259.71 0c-71.84,0 -130.16,58.04 -130.16,129.88l0 849.88 519.8 0 0 -849.88c0,-71.84 -58.36,-129.88 -129.93,-129.88zm0 0z" style="fill: rgb(255, 255, 255); fill-rule: nonzero;"/>
    <path class="fil0" d="M1547.66 1443.22l-259.67 0c-71.84,0 -130.2,58.37 -130.2,129.93l0 1104.35 519.8 0 0 -1104.35c0,-71.7 -58.32,-129.93 -129.93,-129.93zm0 0z" style="fill: rgb(255, 255, 255); fill-rule: nonzero;"/>
    <path class="fil0" d="M2278.61 1938.69l-259.72 0c-71.84,0 -130.15,58.32 -130.15,129.93l0 608.88 519.8 0 0 -608.88c-0.14,-71.61 -58.36,-129.93 -129.92,-129.93zm0 0z" style="fill: rgb(255, 255, 255); fill-rule: nonzero;"/>
    <path class="fil0" d="M3009.51 1313.34l-259.67 0c-71.84,0 -130.2,58.32 -130.2,129.88l0 1234.28 519.8 0 0 -1234.28c-0.14,-71.56 -58.04,-129.88 -129.92,-129.88zm0 0z" style="fill: rgb(255, 255, 255); fill-rule: nonzero;"/>
    <path class="fil0" d="M3740.32 1053.62l-259.67 0c-71.89,0 -130.2,58.09 -130.2,129.92l0 1493.95 519.8 0 0 -1493.95c0,-71.98 -57.95,-129.92 -129.92,-129.92zm0 0z" style="fill: rgb(255, 255, 255); fill-rule: nonzero;"/>
    <path class="fil0" d="M686.84 1388.4c86.05,0 155.73,-70 155.73,-156 0,-0.83 -0.28,-1.89 -0.28,-2.67l452.1 -157.39c28.51,37.07 72.94,61.45 123.39,61.45 35.83,0 68.21,-12.6 94.56,-32.93l486.91 330.08c-3.63,13.66 -6.58,27.69 -6.58,42.27 0,86.33 69.72,156 156,156 86.05,0 155.73,-69.68 155.73,-156 0,-20.88 -4.14,-40.79 -11.77,-59.01l506.42 -433.24c23.55,14.35 51,23.04 80.58,23.04 86,0 155.73,-69.72 155.73,-156 0,-1.06 -0.27,-2.44 -0.27,-3.36l452.93 -161.2c28.47,36.8 72.62,60.85 122.52,60.85 86.05,0 156,-69.95 156,-156 0,-86.28 -69.95,-156 -156,-156 -86.28,0 -156,69.72 -156,156 0,1.06 0.27,2.44 0.55,3.36l-452.93 161.2c-28.47,-36.79 -72.62,-60.85 -122.52,-60.85 -86.33,0 -156,69.68 -156,156 0,20.88 4.42,41.07 11.77,59.28l-506.19 433.2c-23.78,-14.3 -50.96,-23 -80.53,-23 -35.83,0 -68.48,12.56 -94.83,32.93l-486.91 -330.36c3.91,-13.38 6.58,-27.41 6.58,-42.27 0,-86.05 -69.72,-155.77 -155.73,-155.77 -86.32,0 -156,69.72 -156,155.77 0,1.06 0.23,1.84 0.23,2.8l-452.1 157.34c-28.47,-37.07 -72.9,-61.67 -123.07,-61.67 -86.28,0 -156,69.95 -156,156 0,86 69.86,156.14 156,156.14zm0 0z" style="fill: rgb(255, 255, 255); fill-rule: nonzero;"/>
  </g>
</svg>