<?xml version="1.0" encoding="utf-8"?>
<svg viewBox="0 0 500 500" style="shape-rendering: geometricprecision;" xmlns="http://www.w3.org/2000/svg">
  <defs>
    <clipPath id="clip-3">
      <path d="M-0 0l4140.84 0 0 3960.31 -4140.84 0 0 -3960.31zm0 0z"/>
    </clipPath>
  </defs>
  <g id="g-3" transform="matrix(0.12617000937461853, 0, 0, 0.12617000937461853, -11.22488021850586, 0.00043800001708405034)">
    <g/>
    <g style="clip-path: url('#clip-3');">
      <g>
        <path class="fil0" d="M1828.67 2674.23c-5.69,-46.15 -45.27,-82.15 -93.04,-82.15l-283.97 0c-51.21,0 -93.21,41.78 -93.53,92.95l-189.12 -327.51 -0.09 -0.13c-25.39,-44.03 -59.85,-79.51 -100.49,-104.81l0 -1627.39 354.53 0 0 10.01c0,74.48 60.38,134.91 134.91,134.91l1252.94 0c74.53,0 134.91,-60.43 134.91,-134.91l0 -10.01 354.53 0 0 1306.35 -701.13 701.13 -378.99 0c-37.24,0 -67.48,30.24 -67.48,67.48 0,37.24 30.24,67.43 67.48,67.43l302.21 0 -32.22 120.19 -270 0c-37.24,0 -67.48,30.23 -67.48,67.48 0,37.24 30.24,67.48 67.48,67.48l233.81 0 -0.27 0.83c-16.39,61.09 1.1,126.32 45.84,171.1 44.73,44.73 109.96,62.19 171.09,45.79l300.5 -80.57c22.83,-6.17 43.72,-18.2 60.43,-34.95l268.72 -268.67 0 458.9 -1578.25 0 -145.44 -251.84 159.06 0c51.61,0 93.75,-42.09 93.75,-93.74l0 -113.84 232.62 -210.98c27.55,-25.03 29.62,-67.74 4.63,-95.29 -25.03,-27.59 -67.74,-29.66 -95.29,-4.67l-142.67 129.45zm0.7 181.5l-102.34 92.86c-26.66,24.2 -67.65,23.18 -93.08,-2.29l-137.73 -137.95c-26.31,-26.31 -26.27,-69.06 0.09,-95.38 26.35,-26.31 69.11,-26.27 95.42,0.04 0,0 92.25,92.42 92.25,92.42l144.69 -131.21c0.44,3.7 0.7,181.5 0.7,181.5zm390.76 -668.21l334.74 0c37.24,0 67.48,-30.23 67.48,-67.43 0,-37.24 -30.24,-67.47 -67.48,-67.47l-334.74 0c-37.24,0 -67.48,30.23 -67.48,67.47 0,37.2 30.24,67.43 67.48,67.43zm-391.46 -1106.12c-5.73,-46.23 -45.31,-82.2 -93.04,-82.2l-283.97 0c-51.43,0 -93.53,42.09 -93.53,93.75l0 283.92c0,51.44 42.09,93.75 93.53,93.75l283.97 0c51.61,0 93.75,-42.31 93.75,-93.75l0 -113.89 -102.34 92.91c-26.66,24.2 -67.65,23.18 -93.08,-2.29l-137.73 -137.91c-26.31,-26.36 -26.27,-69.11 0.09,-95.42 26.35,-26.31 69.11,-26.27 95.42,0.09l92.25 92.38 144.69 -131.34zm0.7 181.58l232.62 -211.16c27.55,-25.04 29.62,-67.7 4.63,-95.29 -25.03,-27.59 -67.74,-29.62 -95.33,-4.63l-142.62 129.49c0.44,3.79 0.7,181.58 0.7,181.58zm-0.7 614.79c-5.78,-46.19 -45.35,-82.16 -93.04,-82.16l-283.97 0c-51.43,0 -93.53,42.13 -93.53,93.75l0 283.97c0,51.44 42.09,93.53 93.53,93.53l283.97 0c51.61,0 93.75,-42.09 93.75,-93.53l0 -114.02 -102.34 92.82c-26.66,24.2 -67.61,23.18 -93.04,-2.25l-137.73 -137.73c-26.31,-26.31 -26.31,-69.06 0,-95.37 26.31,-26.36 69.06,-26.36 95.42,0l92.29 92.25 144.69 -131.25zm0.7 181.54l232.62 -211.02c27.55,-25.03 29.62,-67.7 4.63,-95.29 -25.03,-27.59 -67.74,-29.66 -95.29,-4.63l-142.67 129.4c0.44,3.83 0.7,181.54 0.7,181.54zm390.76 -629.51l334.74 0c37.24,0 67.48,-30.23 67.48,-67.43 0,-37.24 -30.24,-67.48 -67.48,-67.48l-334.74 0c-37.24,0 -67.48,30.24 -67.48,67.48 0,37.2 30.24,67.43 67.48,67.43zm0 502.62l669.48 0c37.24,0 67.48,-30.24 67.48,-67.48 0,-37.2 -30.24,-67.43 -67.48,-67.43l-669.48 0c-37.24,0 -67.48,30.23 -67.48,67.43 0,37.24 30.24,67.48 67.48,67.48zm0 -757.72l669.48 0c37.24,0 67.48,-30.23 67.48,-67.48 0,-37.2 -30.24,-67.43 -67.48,-67.43l-669.48 0c-37.24,0 -67.48,30.24 -67.48,67.43 0,37.24 30.24,67.48 67.48,67.48zm-662.26 -962.62l357.57 0c29.22,-121.33 138.53,-211.56 268.81,-211.56 130.46,0 239.76,90.22 268.98,211.56l357.57 0 0 423.11 -1252.94 0 0 -423.11zm626.38 88.32c40.41,0 73.21,-32.75 73.21,-72.99 0,-40.46 -32.79,-73.21 -73.21,-73.21 -40.24,0 -73.03,32.75 -73.03,73.21 0,40.24 32.79,72.99 73.03,72.99zm1415.74 2256.1l0 910.61c0,89.6 -73.21,162.63 -162.81,162.63l-1533.51 0 -103.75 -179.69 1500.32 0c74.49,0 134.91,-60.43 134.91,-134.91l0 -593.81 164.83 -164.83zm-164.83 -759.88l0 -1171.44c0,-74.53 -60.43,-134.91 -134.91,-134.91l-354.53 0 0 -179.91 491.47 0c89.6,0 162.81,73.21 162.81,162.81l0 1158.62 -164.83 164.83zm-2012.2 -1306.35l-354.53 0c-74.53,0 -134.91,60.38 -134.91,134.91l0 1583.93c-7.54,-0.57 -15.12,-0.84 -22.74,-0.84 -51.17,0 -99.56,12.34 -142.09,35.3l0 -1770.41c0,-89.6 73.21,-162.81 162.81,-162.81l491.47 0 0 179.91zm1212.69 2619.84c-14.54,3.92 -30.1,-0.22 -40.72,-10.89 -10.67,-10.66 -14.81,-26.18 -10.93,-40.72l80.61 -300.49 271.54 271.54 -300.5 80.57zm124.33 -447.53l826.74 -826.69 271.54 271.54 -826.74 826.7 -271.54 -271.54zm922.11 -922.11l132.31 -132.31c62.1,-62.5 163.96,-62.5 226.05,0l45.49 45.13c62.1,62.5 62.1,164.31 0,226.41l-132.27 132.31 -271.58 -271.54zm-2630.03 684.34l746.75 1293.17c29.62,51.44 29.62,111.86 0,163.29 -29.75,51.26 -82.11,81.63 -141.48,81.63l-1493.18 0c-59.24,0 -111.73,-30.37 -141.35,-81.63 -29.57,-51.43 -29.57,-111.86 0,-163.29l746.61 -1293.17c29.62,-51.39 82.11,-81.62 141.34,-81.62 59.33,0 111.69,30.23 141.3,81.62zm-141.3 982.19c39.23,0 71.49,-30.99 72.9,-70.25l18.38 -510.11c0.79,-20.54 -6.08,-38.48 -20.41,-53.29 -14.19,-14.76 -31.95,-22.26 -52.49,-22.26l-36.8 0c-20.54,0 -38.17,7.49 -52.49,22.26 -14.15,14.81 -21.03,32.75 -20.41,53.29l18.56 510.11c1.37,39.27 33.5,70.25 72.76,70.25zm0 284.37c51.39,0 93.3,-41.91 93.3,-93.35 0,-51.39 -41.91,-93.3 -93.3,-93.3 -51.43,0 -93.35,41.91 -93.35,93.3 0,51.44 41.91,93.35 93.35,93.35zm0 0z" style="fill: rgb(255, 255, 255);"/>
      </g>
    </g>
    <path class="fil1" d="M-0 0l4140.84 0 0 3960.31 -4140.84 0 0 -3960.31zm0 0z" style="fill: none;"/>
  </g>
</svg>