<?xml version="1.0" encoding="utf-8"?>
<svg viewBox="0 0 500 500" style="shape-rendering: geometricprecision;" xmlns="http://www.w3.org/2000/svg">
  <defs>
    <clipPath id="clip-5">
      <path d="M-0 0l2253.12 0 0 2862.57 -2253.12 0 0 -2862.57zm0 0z"/>
    </clipPath>
  </defs>
  <g id="g-5" transform="matrix(0.17834702134132385, 0, 0, 0.17459800839424133, 49.08136749267578, 0.00019200002134311944)" style="">
    <g/>
    <g style="clip-path: url('#clip-5');">
      <g>
        <path class="fil0" d="M1944 1022.77l0 -204.56c0,-13.4 -0.32,-26.77 -0.99,-40.14 -0.64,-13.37 -1.64,-26.74 -2.95,-40.04 -1.31,-13.34 -2.95,-26.61 -4.91,-39.85 -1.99,-13.24 -4.26,-26.45 -6.86,-39.57 -2.63,-13.15 -5.55,-26.2 -8.82,-39.18 -3.24,-13.02 -6.83,-25.91 -10.71,-38.73 -3.88,-12.79 -8.08,-25.52 -12.6,-38.12 -4.52,-12.6 -9.33,-25.11 -14.46,-37.48 -5.1,-12.34 -10.55,-24.59 -16.26,-36.71 -5.74,-12.09 -11.74,-24.05 -18.05,-35.85 -6.31,-11.83 -12.92,-23.47 -19.81,-34.95 -6.86,-11.48 -14.04,-22.8 -21.48,-33.92 -7.44,-11.16 -15.13,-22.09 -23.12,-32.83 -7.99,-10.77 -16.22,-21.32 -24.72,-31.68 -8.5,-10.36 -17.22,-20.49 -26.23,-30.4 -8.98,-9.94 -18.21,-19.62 -27.67,-29.08 -9.49,-9.49 -19.17,-18.72 -29.11,-27.7 -9.91,-9.01 -20.04,-17.73 -30.4,-26.23 -10.36,-8.5 -20.91,-16.74 -31.65,-24.72 -10.77,-7.98 -21.71,-15.68 -32.83,-23.12 -11.16,-7.44 -22.44,-14.59 -33.95,-21.48 -11.48,-6.89 -23.12,-13.5 -34.92,-19.81 -11.83,-6.28 -23.79,-12.31 -35.88,-18.05 -12.12,-5.71 -24.33,-11.13 -36.71,-16.26 -12.38,-5.13 -24.88,-9.94 -37.48,-14.46 -12.6,-4.52 -25.33,-8.72 -38.12,-12.6 -12.82,-3.88 -25.71,-7.47 -38.7,-10.71 -12.99,-3.24 -26.07,-6.19 -39.18,-8.79 -13.15,-2.63 -26.32,-4.9 -39.6,-6.89 -13.24,-1.95 -26.52,-3.59 -39.85,-4.9 -13.31,-1.31 -26.68,-2.31 -40.05,-2.95 -13.37,-0.67 -26.74,-0.99 -40.14,-0.99 -13.4,0 -26.77,0.32 -40.14,0.99 -13.37,0.64 -26.74,1.64 -40.05,2.95 -13.34,1.31 -26.61,2.95 -39.85,4.9 -13.24,1.99 -26.45,4.26 -39.57,6.89 -13.14,2.6 -26.19,5.55 -39.21,8.79 -12.99,3.24 -25.88,6.83 -38.7,10.71 -12.79,3.88 -25.52,8.08 -38.12,12.6 -12.6,4.52 -25.11,9.33 -37.48,14.46 -12.34,5.13 -24.59,10.55 -36.71,16.26 -12.09,5.74 -24.05,11.77 -35.85,18.05 -11.83,6.32 -23.47,12.92 -34.95,19.81 -11.48,6.89 -22.79,14.04 -33.92,21.48 -11.16,7.44 -22.09,15.14 -32.86,23.12 -10.74,7.98 -21.29,16.22 -31.65,24.72 -10.36,8.49 -20.49,17.22 -30.4,26.23 -9.94,8.98 -19.62,18.21 -29.11,27.7 -9.46,9.46 -18.69,19.14 -27.67,29.08 -9.01,9.91 -17.73,20.04 -26.23,30.4 -8.49,10.36 -16.74,20.91 -24.72,31.68 -7.99,10.74 -15.68,21.67 -23.12,32.83 -7.44,11.13 -14.62,22.44 -21.48,33.92 -6.89,11.48 -13.5,23.12 -19.81,34.95 -6.28,11.8 -12.31,23.76 -18.05,35.85 -5.71,12.12 -11.13,24.37 -16.26,36.71 -5.13,12.38 -9.94,24.88 -14.46,37.48 -4.52,12.6 -8.72,25.33 -12.6,38.12 -3.88,12.83 -7.47,25.71 -10.71,38.73 -3.27,12.99 -6.19,26.04 -8.79,39.18 -2.63,13.11 -4.91,26.32 -6.89,39.57 -1.96,13.24 -3.59,26.52 -4.9,39.85 -1.31,13.31 -2.31,26.68 -2.95,40.04 -0.67,13.37 -0.99,26.74 -0.99,40.14l0 204.56c-10.04,0 -20.07,0.48 -30.07,1.48 -10,0.99 -19.91,2.47 -29.79,4.43 -9.84,1.96 -19.59,4.39 -29.21,7.31 -9.62,2.92 -19.05,6.28 -28.34,10.13 -9.27,3.85 -18.34,8.15 -27.22,12.89 -8.85,4.75 -17.47,9.88 -25.81,15.49 -8.37,5.58 -16.41,11.54 -24.21,17.92 -7.76,6.38 -15.2,13.11 -22.32,20.23 -7.09,7.08 -13.82,14.52 -20.2,22.32 -6.38,7.76 -12.34,15.81 -17.96,24.17 -5.58,8.34 -10.74,16.96 -15.45,25.81 -4.74,8.88 -9.04,17.96 -12.89,27.22 -3.85,9.3 -7.21,18.76 -10.13,28.34 -2.92,9.62 -5.36,19.37 -7.34,29.21 -1.96,9.87 -3.43,19.78 -4.39,29.79 -0.99,10 -1.48,20.04 -1.48,30.07l0 1227.33c0,10.04 0.48,20.07 1.48,30.07 0.96,10 2.44,19.91 4.39,29.79 1.99,9.84 4.43,19.59 7.34,29.21 2.92,9.59 6.28,19.04 10.13,28.34 3.85,9.26 8.15,18.34 12.89,27.22 4.71,8.85 9.87,17.48 15.45,25.81 5.61,8.37 11.58,16.41 17.96,24.21 6.38,7.76 13.11,15.2 20.2,22.28 7.12,7.12 14.56,13.85 22.32,20.23 7.79,6.38 15.84,12.34 24.21,17.92 8.34,5.61 16.96,10.77 25.81,15.49 8.88,4.74 17.96,9.04 27.22,12.89 9.3,3.85 18.73,7.22 28.34,10.13 9.62,2.92 19.37,5.35 29.21,7.31 9.87,1.96 19.78,3.43 29.79,4.43 10,0.99 20.04,1.48 30.07,1.48l1636.42 0c10.04,0 20.07,-0.48 30.07,-1.48 10,-1 19.91,-2.47 29.79,-4.43 9.84,-1.96 19.59,-4.39 29.21,-7.31 9.62,-2.92 19.04,-6.28 28.34,-10.13 9.3,-3.85 18.37,-8.14 27.22,-12.89 8.85,-4.71 17.47,-9.88 25.81,-15.49 8.37,-5.58 16.42,-11.54 24.21,-17.92 7.76,-6.38 15.2,-13.12 22.32,-20.23 7.08,-7.08 13.82,-14.52 20.2,-22.28 6.38,-7.79 12.38,-15.84 17.96,-24.21 5.58,-8.34 10.74,-16.96 15.49,-25.81 4.71,-8.88 9.01,-17.96 12.86,-27.22 3.85,-9.3 7.22,-18.76 10.13,-28.34 2.92,-9.62 5.35,-19.37 7.34,-29.21 1.96,-9.87 3.43,-19.78 4.39,-29.79 1,-10 1.48,-20.04 1.48,-30.07l0 -1227.33c0,-10.04 -0.48,-20.07 -1.48,-30.07 -0.96,-10 -2.44,-19.91 -4.39,-29.79 -1.99,-9.84 -4.42,-19.59 -7.34,-29.21 -2.92,-9.59 -6.28,-19.05 -10.13,-28.34 -3.85,-9.26 -8.14,-18.34 -12.86,-27.22 -4.74,-8.85 -9.91,-17.47 -15.49,-25.81 -5.58,-8.37 -11.57,-16.41 -17.96,-24.17 -6.38,-7.79 -13.11,-15.23 -20.2,-22.32 -7.12,-7.12 -14.56,-13.85 -22.32,-20.23 -7.79,-6.38 -15.84,-12.34 -24.21,-17.92 -8.34,-5.61 -16.96,-10.74 -25.81,-15.49 -8.85,-4.74 -17.92,-9.04 -27.22,-12.89 -9.3,-3.85 -18.73,-7.21 -28.34,-10.13 -9.62,-2.92 -19.37,-5.35 -29.21,-7.31 -9.88,-1.96 -19.78,-3.43 -29.79,-4.43 -10,-0.99 -20.04,-1.48 -30.07,-1.48zm-1431.86 -204.56c0,-10.04 0.26,-20.07 0.74,-30.11 0.48,-10.04 1.22,-20.04 2.21,-30.04 0.99,-10 2.21,-19.94 3.69,-29.88 1.48,-9.94 3.21,-19.85 5.16,-29.69 1.95,-9.84 4.13,-19.66 6.57,-29.37 2.47,-9.75 5.13,-19.43 8.05,-29.05 2.92,-9.59 6.06,-19.14 9.46,-28.6 3.37,-9.46 6.99,-18.82 10.84,-28.09 3.85,-9.3 7.92,-18.47 12.18,-27.54 4.3,-9.07 8.82,-18.05 13.56,-26.9 4.71,-8.85 9.68,-17.6 14.84,-26.2 5.16,-8.63 10.52,-17.12 16.1,-25.46 5.58,-8.34 11.38,-16.55 17.35,-24.63 6,-8.08 12.18,-16 18.53,-23.76 6.38,-7.76 12.96,-15.36 19.69,-22.8 6.73,-7.44 13.66,-14.72 20.78,-21.8 7.09,-7.12 14.37,-14.04 21.8,-20.78 7.44,-6.73 15.04,-13.31 22.8,-19.69 7.76,-6.35 15.68,-12.54 23.76,-18.53 8.05,-5.96 16.26,-11.77 24.62,-17.35 8.34,-5.58 16.83,-10.93 25.46,-16.09 8.59,-5.16 17.35,-10.1 26.2,-14.85 8.85,-4.74 17.83,-9.26 26.9,-13.53 9.07,-4.3 18.24,-8.37 27.54,-12.22 9.26,-3.85 18.63,-7.47 28.09,-10.84 9.46,-3.4 19.01,-6.54 28.6,-9.46 9.62,-2.92 19.3,-5.58 29.05,-8.02 9.72,-2.47 19.53,-4.65 29.37,-6.61 9.84,-1.96 19.75,-3.69 29.69,-5.16 9.94,-1.48 19.88,-2.69 29.88,-3.69 10,-1 20.01,-1.73 30.04,-2.21 10.04,-0.48 20.07,-0.74 30.11,-0.74 10.04,0 20.07,0.26 30.11,0.74 10.04,0.48 20.04,1.22 30.04,2.21 10,0.99 19.97,2.21 29.88,3.69 9.94,1.48 19.85,3.21 29.69,5.16 9.84,1.96 19.66,4.14 29.37,6.61 9.75,2.44 19.43,5.1 29.05,8.02 9.62,2.92 19.14,6.06 28.6,9.46 9.46,3.37 18.82,6.99 28.09,10.84 9.3,3.85 18.47,7.92 27.54,12.22 9.07,4.26 18.05,8.79 26.9,13.53 8.85,4.75 17.6,9.68 26.23,14.85 8.59,5.16 17.09,10.52 25.43,16.09 8.37,5.58 16.58,11.38 24.62,17.35 8.08,6 16,12.18 23.76,18.53 7.76,6.38 15.36,12.95 22.79,19.69 7.44,6.73 14.72,13.66 21.8,20.78 7.12,7.08 14.04,14.36 20.78,21.8 6.76,7.44 13.31,15.04 19.69,22.8 6.38,7.76 12.54,15.68 18.53,23.76 5.96,8.08 11.77,16.29 17.35,24.63 5.58,8.34 10.93,16.83 16.1,25.46 5.16,8.59 10.13,17.35 14.84,26.2 4.75,8.85 9.27,17.83 13.56,26.9 4.3,9.07 8.34,18.24 12.18,27.54 3.85,9.27 7.47,18.63 10.84,28.09 3.4,9.46 6.54,19.01 9.46,28.6 2.92,9.62 5.61,19.3 8.05,29.05 2.44,9.71 4.62,19.53 6.57,29.37 1.99,9.84 3.69,19.75 5.16,29.69 1.48,9.94 2.69,19.88 3.69,29.88 0.99,10 1.73,20.01 2.21,30.04 0.51,10.04 0.74,20.07 0.74,30.11l0 204.56 -1227.3 0 0 -204.56zm715.93 1198.99l0 130.59c0,6.73 -0.67,13.37 -1.96,19.98 -1.31,6.57 -3.27,12.95 -5.84,19.17 -2.56,6.19 -5.71,12.09 -9.46,17.67 -3.72,5.61 -7.95,10.77 -12.7,15.52 -4.75,4.74 -9.94,8.98 -15.52,12.7 -5.58,3.75 -11.48,6.89 -17.67,9.46 -6.22,2.57 -12.6,4.52 -19.2,5.84 -6.57,1.31 -13.24,1.96 -19.94,1.96 -6.7,0 -13.37,-0.64 -19.94,-1.96 -6.61,-1.31 -12.99,-3.27 -19.21,-5.84 -6.19,-2.56 -12.09,-5.71 -17.67,-9.46 -5.58,-3.72 -10.74,-7.95 -15.52,-12.7 -4.75,-4.75 -8.98,-9.91 -12.7,-15.52 -3.75,-5.58 -6.89,-11.48 -9.46,-17.67 -2.56,-6.22 -4.52,-12.6 -5.84,-19.17 -1.28,-6.61 -1.95,-13.24 -1.95,-19.98l0 -130.59c-6.44,-3.72 -12.66,-7.79 -18.66,-12.18 -6.03,-4.42 -11.77,-9.14 -17.25,-14.17 -5.48,-5 -10.68,-10.32 -15.58,-15.93 -4.94,-5.58 -9.52,-11.45 -13.79,-17.54 -4.26,-6.09 -8.21,-12.41 -11.77,-18.95 -3.59,-6.51 -6.8,-13.21 -9.65,-20.1 -2.85,-6.86 -5.32,-13.88 -7.41,-21.03 -2.08,-7.15 -3.75,-14.4 -5.07,-21.71 -1.28,-7.34 -2.18,-14.72 -2.66,-22.15 -0.48,-7.44 -0.58,-14.85 -0.26,-22.29 0.35,-7.44 1.06,-14.84 2.21,-22.22 1.12,-7.34 2.66,-14.62 4.59,-21.8 1.92,-7.22 4.23,-14.27 6.92,-21.19 2.69,-6.96 5.77,-13.72 9.2,-20.33 3.43,-6.61 7.25,-13.02 11.38,-19.2 4.14,-6.19 8.59,-12.12 13.37,-17.83 4.78,-5.71 9.88,-11.13 15.23,-16.29 5.39,-5.13 11.03,-9.97 16.93,-14.52 5.93,-4.52 12.06,-8.72 18.4,-12.57 6.38,-3.88 12.92,-7.37 19.69,-10.52 6.73,-3.14 13.63,-5.93 20.68,-8.3 7.05,-2.41 14.23,-4.39 21.48,-6.03 7.28,-1.6 14.62,-2.82 22.03,-3.62 7.37,-0.8 14.81,-1.22 22.25,-1.22 7.44,0 14.88,0.42 22.29,1.22 7.37,0.8 14.71,2.02 21.99,3.62 7.28,1.64 14.43,3.62 21.48,6.03 7.05,2.37 13.95,5.16 20.68,8.3 6.77,3.14 13.31,6.64 19.69,10.52 6.35,3.85 12.51,8.05 18.4,12.57 5.9,4.55 11.54,9.4 16.93,14.52 5.36,5.16 10.45,10.58 15.23,16.29 4.78,5.71 9.26,11.64 13.4,17.83 4.14,6.19 7.92,12.6 11.35,19.2 3.43,6.61 6.51,13.37 9.2,20.33 2.69,6.93 5,13.98 6.93,21.19 1.92,7.18 3.46,14.46 4.62,21.8 1.12,7.37 1.86,14.78 2.18,22.22 0.32,7.44 0.23,14.85 -0.26,22.29 -0.48,7.44 -1.38,14.81 -2.66,22.15 -1.28,7.31 -2.98,14.56 -5.07,21.71 -2.08,7.15 -4.55,14.17 -7.41,21.03 -2.85,6.89 -6.06,13.59 -9.65,20.1 -3.56,6.54 -7.5,12.86 -11.77,18.95 -4.26,6.09 -8.85,11.96 -13.75,17.54 -4.94,5.61 -10.13,10.93 -15.61,15.93 -5.48,5.03 -11.22,9.75 -17.25,14.17 -6,4.39 -12.22,8.46 -18.66,12.18zm0 0z" style="fill: rgb(255, 255, 255); fill-rule: nonzero;"/>
      </g>
    </g>
    <path class="fil1" d="M-0 0l2253.12 0 0 2862.57 -2253.12 0 0 -2862.57zm0 0z" style="fill: none;"/>
  </g>
</svg>