<?xml version="1.0" encoding="utf-8"?>
<svg viewBox="-7349.4098 -2640.0465 3766.856 3766.6367" xmlns="http://www.w3.org/2000/svg">
  <g id="Camada_x0020_1" transform="matrix(1, 0, 0, 1, -7349.4140625, -2640.063232421875)">
    <path class="fil0" d="M1530.54 0.1c-854.62,9.34 -1539.86,709.91 -1530.44,1564.57 9.29,854.53 709.78,1539.81 1564.48,1530.44 315.61,-3.46 622.6,-103.4 879.96,-286.38l883.89 883.72c101.2,99.85 264.37,98.84 364.27,-2.49 98.88,-100.23 98.88,-261.46 0,-361.82l-883.89 -883.72c495.38,-696.43 332.21,-1662.69 -364.27,-2158.06 -266.82,-189.61 -586.74,-289.84 -914,-286.25zm-18.63 267.84c705.81,-19.73 1293.98,536.35 1313.71,1242.24 0.3,12.42 0.55,24.83 0.55,37.21 0.29,706.06 -571.92,1278.69 -1277.89,1279.11 -706.11,0.25 -1278.78,-571.83 -1279.12,-1277.93 0,-0.38 0,-0.72 0,-1.1 -0.76,-692.72 550.24,-1260.15 1242.75,-1279.54zm0 0z" style="fill: rgb(255, 255, 255); fill-rule: nonzero;"/>
    <path class="fil0" d="M1202.51 599.34c69.99,-25.05 146.99,11.28 172.08,81.27 24.92,69.48 -10.77,146.06 -80.04,171.7 -292.29,106.4 -486.85,384.25 -486.85,695.25 0,74.38 -60.27,134.61 -134.57,134.61 -74.34,0 -134.57,-60.23 -134.57,-134.61 0.04,-424.2 265.3,-803.17 663.95,-948.22zm0 0z" style="fill: rgb(255, 255, 255); fill-rule: nonzero;"/>
  </g>
</svg>