<?xml version="1.0" encoding="utf-8"?>
<svg viewBox="0.0002 186.9909 499.9996 126.0181" xmlns="http://www.w3.org/2000/svg">
  <g transform="matrix(0.4148810207843781, 0, 0, 0.4148810207843781, -148.2850058717281, -143.30197357091265)">
    <path d="M461.12,903.75l-32.49-6.72c-15.22-3.21-21.94-9.68-21.94-22.81,0-5.73,1.97-10.6,5.67-14.36,5.36-5.61,14.42-8.75,25.95-8.75,16.96,0,28.1,14.93,29.19,29.46.1,1.31,1.12,2.34,2.44,2.34h42.97c.97,0,1.77-.81,1.75-1.78-.84-40.1-29.94-72.19-75.8-72.19-22.19,0-41.36,6.35-55.29,17.26-15.29,11.9-24.29,29.28-24.29,49.74,0,12.64,2.53,23.49,7.52,32.61.99,1.91,2.16,3.76,3.39,5.49,5.55,7.83,13.19,14.18,22.93,18.99,2.28,1.17,4.75,2.22,7.27,3.14,5.3,2.1,11.1,3.76,17.44,5.05l33.04,6.72c14.36,2.96,19.91,9.06,19.91,21.08,0,8.26-4.81,14.61-13.31,18.31-5.67,2.59-12.95,3.95-21.51,3.95-4.62,0-8.69-.55-12.27-1.6-3.82-1.11-7.03-2.71-9.74-4.81-2.59-1.91-4.68-4.25-6.41-6.84-1.94-2.82-3.38-5.98-4.47-9.43-.1-.31-.35-.55-.66-.63-4.38-1.2-8.53-2.57-12.56-4.12-3.64-1.36-7.09-2.9-10.23-4.5-4.9-2.41-9.51-5.18-13.77-8.28-3.75-2.72-8.9.4-8.4,5.01,3.36,30.92,14.49,62.84,50.09,73.54,2.03.62,4.19,1.17,6.41,1.66,3.08.68,6.35,1.17,9.74,1.54,3.76.43,7.77.62,11.96.62,19.79,0,36.92-4.31,50.36-12.21,20.28-11.84,32.18-31.74,32.18-56.89,0-34.21-18.43-52.7-57.08-60.59Z" style="fill: #fff; stroke-width: 0px;"/>
    <path d="M624.66,878.58c-20.78,0-39.22,9.07-47.41,22.54l-2.34-17.85h-42.44v216.59h45.07v-84.88c8.49,11.12,27.22,18.73,47.41,18.73,43.61,0,68.78-33.37,68.78-79.61s-28.39-75.51-69.07-75.51ZM613.54,993.02c-21.07,0-35.71-14.63-35.71-36.59s14.63-36.59,35.71-36.59,34.83,14.93,34.83,36.59-13.46,36.59-34.83,36.59Z" style="fill: #fff; stroke-width: 0px;"/>
    <path d="M782.29,996.83c-19.9,0-30.73-9.07-33.37-28.39l106.25-.59v-11.41c0-47.71-28.69-77.85-74.63-77.85s-74.93,31.9-74.93,77.56,31.61,77.27,75.8,77.27c40.1,0,69.08-20.78,74.34-53.27h-41.27c-3.22,10.54-15.22,16.68-32.2,16.68ZM780.83,915.17c18.15,0,29.56,9.95,29.56,25.46h-60.88c3.51-17.56,13.46-25.46,31.32-25.46Z" style="fill: #fff; stroke-width: 0px;"/>
    <path d="M944.48,918.97c15.51,0,24.59,7.02,27.81,21.66h45.37c-2.93-38.34-31.61-62.05-74.93-62.05s-74.93,32.2-74.93,77.27,29.85,77.56,76.1,77.56c40.98,0,70.83-25.17,73.76-62.05h-45.37c-2.93,14.34-12.59,21.66-28.39,21.66-19.32,0-30.73-13.76-30.73-37.17s12.29-36.88,31.32-36.88Z" style="fill: #fff; stroke-width: 0px;"/>
    <path d="M1386.89,944.14c0-41.85-24-65.56-66.44-65.56s-69.07,21.66-69.07,54.73h37.46c0-13.17,10.24-20.49,29.27-20.49,16.1,0,24.88,7.61,24.88,21.95v2.34l-40.98,3.22c-35.12,2.63-54.15,19.32-54.15,46.24,0,28.68,19.32,46.83,50.34,46.83,21.95,0,41.27-9.66,45.95-23.12l2.93,19.32h39.81v-85.46ZM1343.28,974.87c0,16.68-12,25.17-29.27,25.17-13.76,0-20.2-4.98-20.2-15.51,0-9.36,7.02-13.76,26.64-15.51l22.83-2.05v7.9Z" style="fill: #fff; stroke-width: 0px;"/>
    <path d="M1562.57,851.14h-45.58l-35.69,59.09c-7.96-14.71-14.23-25.56-20.74-35.69l-14.95-23.39h-46.55l57.4,89.23-59.57,89.23h45.82l38.35-59.33c8.68,15.92,14.47,26.53,23.4,40.76l11.82,18.57h46.3l-56.43-89.23,56.43-89.23Z" style="fill: #fff; stroke-width: 0px;"/>
    <path d="M560.68,848.17c0-1.87-.37-3.66-1.02-5.31,19.86-10,62.52-28.62,120.65-37.99,72.63-11.69,184.4-10.72,309.56,57.45-.75,1.75-1.17,3.68-1.17,5.71,0,8,6.48,14.48,14.48,14.48s14.48-6.48,14.48-14.48-6.48-14.48-14.48-14.48c-4.86,0-9.16,2.41-11.78,6.08-126-68.65-238.57-69.62-311.71-57.79-58.44,9.44-101.39,28.17-121.44,38.28-2.6-3.88-7.02-6.44-12.04-6.44-7.99,0-14.48,6.48-14.48,14.48s6.48,14.48,14.48,14.48,14.48-6.48,14.48-14.48Z" style="fill: #fff; stroke-width: 0px;"/>
    <path d="M1401.35,1038.9c-7.99,0-14.46,6.47-14.46,14.46s6.47,14.46,14.46,14.46,14.46-6.47,14.46-14.46-6.47-14.46-14.46-14.46Z" style="fill: #fff; stroke-width: 0px;"/>
    <path d="M1183.67,905.22l-2.34-21.66h-42.44v146.05h45.08v-63.51c0-28.97,15.51-40.39,41.27-40.39h14.34v-42.44c-6.15-1.46-12-2.05-17.27-2.05-19.61,0-32.49,9.66-38.63,24Z" style="fill: #fff; stroke-width: 0px;"/>
    <polygon points="1093.48 851.14 1048.41 851.14 1048.41 883.51 1029.69 883.51 1029.69 920.98 1048.41 920.98 1048.41 1029.61 1093.48 1029.61 1093.48 920.98 1126.97 920.98 1126.97 883.51 1093.48 883.51 1093.48 851.14" style="fill: #fff; stroke-width: 0px;"/>
  </g>
  <path d="M 121.434 294.203 L 124.553 294.203 L 124.553 309.765 L 121.434 309.765 L 121.434 294.203 Z M 137.821 304.882 L 130.752 294.178 L 127.632 294.178 L 127.632 309.765 L 130.752 309.765 L 130.752 299.086 L 137.821 309.765 L 140.941 309.765 L 140.941 294.178 L 137.821 294.178 L 137.821 304.882 Z M 143.194 296.721 L 147.343 296.721 L 147.343 309.765 L 150.463 309.765 L 150.463 296.721 L 154.612 296.721 L 154.612 294.203 L 143.194 294.203 L 143.194 296.721 Z M 156.885 309.765 L 165.917 309.765 L 165.917 307.222 L 160.009 307.222 L 160.009 303.098 L 165.249 303.098 L 165.249 300.621 L 160.009 300.621 L 160.009 296.721 L 165.917 296.721 L 165.917 294.178 L 156.885 294.178 L 156.885 309.765 Z M 171.871 294.203 L 168.751 294.203 L 168.751 309.765 L 176.999 309.765 L 176.999 307.288 L 171.871 307.288 L 171.871 294.198 L 171.871 294.203 Z M 178.986 309.765 L 182.106 309.765 L 182.106 294.203 L 178.986 294.203 L 178.986 309.765 Z M 191.561 303.5 L 196.913 303.5 C 196.444 305.707 194.905 307.089 192.499 307.089 C 189.599 307.089 187.636 305.126 187.636 301.961 C 187.636 298.795 189.578 296.879 192.362 296.879 C 194.013 296.879 195.303 297.571 196.017 298.887 L 199.605 298.887 C 198.601 295.767 195.838 294.003 192.357 294.003 C 187.852 294.003 184.421 297.302 184.421 301.965 C 184.421 306.628 187.856 309.902 192.382 309.902 C 196.531 309.902 199.361 307.002 199.987 303.836 L 199.987 301.115 L 191.561 301.115 L 191.561 303.5 Z M 210.023 293.311 L 210.023 291.037 L 206.725 289.232 L 203.402 291.037 L 203.402 293.311 L 206.725 291.44 L 210.023 293.311 Z M 202.31 309.765 L 211.342 309.765 L 211.342 307.222 L 205.435 307.222 L 205.435 303.098 L 210.674 303.098 L 210.674 300.621 L 205.435 300.621 L 205.435 296.721 L 211.342 296.721 L 211.342 294.178 L 202.31 294.178 L 202.31 309.765 Z M 224.361 304.882 L 217.292 294.178 L 214.172 294.178 L 214.172 309.765 L 217.292 309.765 L 217.292 299.086 L 224.361 309.765 L 227.481 309.765 L 227.481 294.178 L 224.361 294.178 L 224.361 304.882 Z M 237.675 296.808 C 239.347 296.808 240.687 297.542 241.421 299.036 L 245.01 299.036 C 243.96 295.846 241.152 293.995 237.696 293.995 C 233.215 293.995 229.805 297.294 229.805 301.957 C 229.805 306.62 233.215 309.893 237.696 309.893 C 241.152 309.893 243.96 308.064 245.01 304.853 L 241.421 304.853 C 240.687 306.367 239.347 307.105 237.675 307.105 C 234.953 307.105 233.016 305.097 233.016 301.957 C 233.016 298.816 234.958 296.808 237.675 296.808 Z M 247.686 309.765 L 250.806 309.765 L 250.806 294.203 L 247.686 294.203 L 247.686 309.765 Z M 262.157 294.178 L 267.754 309.765 L 264.456 309.765 L 263.431 306.798 L 257.232 306.798 L 256.208 309.765 L 252.93 309.765 L 258.527 294.178 L 262.161 294.178 L 262.157 294.178 Z M 262.58 304.301 L 260.327 297.791 L 258.075 304.301 L 262.58 304.301 Z M 274.334 296.721 L 278.483 296.721 L 278.483 309.765 L 281.603 309.765 L 281.603 296.721 L 285.751 296.721 L 285.751 294.203 L 274.334 294.203 L 274.334 296.721 Z M 288.025 309.765 L 297.057 309.765 L 297.057 307.222 L 291.149 307.222 L 291.149 303.098 L 296.389 303.098 L 296.389 300.621 L 291.149 300.621 L 291.149 296.721 L 297.057 296.721 L 297.057 294.178 L 288.025 294.178 L 288.025 309.765 Z M 307.802 303.454 L 311.528 309.765 L 307.914 309.765 L 304.479 303.699 L 303.006 303.699 L 303.006 309.765 L 299.886 309.765 L 299.886 294.203 L 305.728 294.203 C 309.474 294.203 311.345 296.364 311.345 298.974 C 311.345 300.87 310.296 302.787 307.802 303.454 Z M 308.138 299.04 C 308.138 297.659 307.358 296.787 305.62 296.787 L 303.01 296.787 L 303.01 301.359 L 305.62 301.359 C 307.358 301.359 308.138 300.447 308.138 299.04 Z M 322.095 303.454 L 325.817 309.765 L 322.203 309.765 L 318.768 303.699 L 317.295 303.699 L 317.295 309.765 L 314.175 309.765 L 314.175 294.203 L 320.016 294.203 C 323.763 294.203 325.634 296.364 325.634 298.974 C 325.634 300.87 324.584 302.787 322.091 303.454 L 322.095 303.454 Z M 322.431 299.04 C 322.431 297.659 321.651 296.787 319.913 296.787 L 317.303 296.787 L 317.303 301.359 L 319.913 301.359 C 321.651 301.359 322.431 300.447 322.431 299.04 Z M 328.476 309.765 L 331.596 309.765 L 331.596 294.203 L 328.476 294.203 L 328.476 309.765 Z M 333.849 296.721 L 337.997 296.721 L 337.997 309.765 L 341.117 309.765 L 341.117 296.721 L 345.266 296.721 L 345.266 294.203 L 333.849 294.203 L 333.849 296.721 Z M 362.724 301.936 C 362.724 306.62 359.181 309.918 354.763 309.918 C 350.344 309.918 346.78 306.62 346.78 301.936 C 346.78 297.252 350.369 293.974 354.763 293.974 C 359.156 293.974 362.724 297.273 362.724 301.936 Z M 359.513 301.936 C 359.513 298.77 357.572 296.787 354.763 296.787 C 351.954 296.787 349.992 298.77 349.992 301.936 C 349.992 305.102 351.933 307.13 354.763 307.13 C 357.592 307.13 359.513 305.102 359.513 301.936 Z M 372.959 303.454 L 376.685 309.765 L 373.072 309.765 L 369.636 303.699 L 368.163 303.699 L 368.163 309.765 L 365.044 309.765 L 365.044 294.203 L 370.885 294.203 C 374.631 294.203 376.503 296.364 376.503 298.974 C 376.503 300.87 375.453 302.787 372.959 303.454 Z M 373.296 299.04 C 373.296 297.659 372.516 296.787 370.777 296.787 L 368.168 296.787 L 368.168 301.359 L 370.777 301.359 C 372.516 301.359 373.296 300.447 373.296 299.04 Z M 379.336 309.765 L 382.456 309.765 L 382.456 294.203 L 379.336 294.203 L 379.336 309.765 Z M 393.807 294.178 L 399.404 309.765 L 396.106 309.765 L 395.081 306.798 L 388.883 306.798 L 387.858 309.765 L 384.58 309.765 L 390.177 294.178 L 393.811 294.178 L 393.807 294.178 Z M 394.23 304.301 L 391.978 297.791 L 389.725 304.301 L 394.23 304.301 Z M 404.623 307.288 L 404.623 294.198 L 401.503 294.198 L 401.503 309.761 L 409.751 309.761 L 409.751 307.284 L 404.623 307.284 L 404.623 307.288 Z" style="fill: #fff; stroke-width: 0px;"/>
</svg>