<?xml version="1.0" encoding="utf-8"?>
<svg viewBox="0.0002 186.9909 499.9996 126.0182" xmlns="http://www.w3.org/2000/svg">
  <defs>
    <filter id="shadow" x="-20%" y="-20%" width="140%" height="140%">
      <feDropShadow dx="4" dy="4" stdDeviation="4" flood-color="black" />
    </filter>
  </defs>
  <g transform="matrix(0.4148810207843781, 0, 0, 0.4148810207843781, 37.07431466988197, 146.27961948930644)" filter="url(#shadow)">
    <path d="M 14.343 205.763 L -18.147 199.043 C -33.367 195.833 -40.087 189.363 -40.087 176.233 C -40.087 170.503 -38.117 165.633 -34.417 161.873 C -29.057 156.263 -19.997 153.123 -8.467 153.123 C 8.493 153.123 19.633 168.053 20.723 182.583 C 20.823 183.893 21.843 184.923 23.163 184.923 L 66.133 184.923 C 67.103 184.923 67.903 184.113 67.883 183.143 C 67.043 143.043 37.943 110.953 -7.917 110.953 C -30.107 110.953 -49.277 117.303 -63.207 128.213 C -78.497 140.113 -87.497 157.493 -87.497 177.953 C -87.497 190.593 -84.967 201.443 -79.977 210.563 C -78.987 212.473 -77.817 214.323 -76.587 216.053 C -71.037 223.883 -63.397 230.233 -53.657 235.043 C -51.377 236.213 -48.907 237.263 -46.387 238.183 C -41.087 240.283 -35.287 241.943 -28.947 243.233 L 4.093 249.953 C 18.453 252.913 24.003 259.013 24.003 271.033 C 24.003 279.293 19.193 285.643 10.693 289.343 C 5.023 291.933 -2.257 293.293 -10.817 293.293 C -15.437 293.293 -19.507 292.743 -23.087 291.693 C -26.907 290.583 -30.117 288.983 -32.827 286.883 C -35.417 284.973 -37.507 282.633 -39.237 280.043 C -41.177 277.223 -42.617 274.063 -43.707 270.613 C -43.807 270.303 -44.057 270.063 -44.367 269.983 C -48.747 268.783 -52.897 267.413 -56.927 265.863 C -60.567 264.503 -64.017 262.963 -67.157 261.363 C -72.057 258.953 -76.667 256.183 -80.927 253.083 C -84.677 250.363 -89.827 253.483 -89.327 258.093 C -85.967 289.013 -74.837 320.933 -39.237 331.633 C -37.207 332.253 -35.047 332.803 -32.827 333.293 C -29.747 333.973 -26.477 334.463 -23.087 334.833 C -19.327 335.263 -15.317 335.453 -11.127 335.453 C 8.663 335.453 25.793 331.143 39.233 323.243 C 59.513 311.403 71.413 291.503 71.413 266.353 C 71.413 232.143 52.983 213.653 14.333 205.763 L 14.343 205.763 Z" style="fill: #fff; stroke-width: 0px;"/>
    <path d="M 177.883 180.593 C 157.103 180.593 138.663 189.663 130.473 203.133 L 128.133 185.283 L 85.693 185.283 L 85.693 401.873 L 130.763 401.873 L 130.763 316.993 C 139.253 328.113 157.983 335.723 178.173 335.723 C 221.783 335.723 246.953 302.353 246.953 256.113 C 246.953 209.873 218.563 180.603 177.883 180.603 L 177.883 180.593 Z M 166.763 295.033 C 145.693 295.033 131.053 280.403 131.053 258.443 C 131.053 236.483 145.683 221.853 166.763 221.853 C 187.843 221.853 201.593 236.783 201.593 258.443 C 201.593 280.103 188.133 295.033 166.763 295.033 Z" style="fill: #fff; stroke-width: 0px;"/>
    <path d="M 335.513 298.843 C 315.613 298.843 304.783 289.773 302.143 270.453 L 408.393 269.863 L 408.393 258.453 C 408.393 210.743 379.703 180.603 333.763 180.603 C 287.823 180.603 258.833 212.503 258.833 258.163 C 258.833 303.823 290.443 335.433 334.633 335.433 C 374.733 335.433 403.713 314.653 408.973 282.163 L 367.703 282.163 C 364.483 292.703 352.483 298.843 335.503 298.843 L 335.513 298.843 Z M 334.053 217.183 C 352.203 217.183 363.613 227.133 363.613 242.643 L 302.733 242.643 C 306.243 225.083 316.193 217.183 334.053 217.183 Z" style="fill: #fff; stroke-width: 0px;"/>
    <path d="M 497.703 220.983 C 513.213 220.983 522.293 228.003 525.513 242.643 L 570.883 242.643 C 567.953 204.303 539.273 180.593 495.953 180.593 C 452.633 180.593 421.023 212.793 421.023 257.863 C 421.023 302.933 450.873 335.423 497.123 335.423 C 538.103 335.423 567.953 310.253 570.883 273.373 L 525.513 273.373 C 522.583 287.713 512.923 295.033 497.123 295.033 C 477.803 295.033 466.393 281.273 466.393 257.863 C 466.393 234.453 478.683 220.983 497.713 220.983 L 497.703 220.983 Z" style="fill: #fff; stroke-width: 0px;"/>
    <path d="M 940.113 246.153 C 940.113 204.303 916.113 180.593 873.673 180.593 C 831.233 180.593 804.603 202.253 804.603 235.323 L 842.063 235.323 C 842.063 222.153 852.303 214.833 871.333 214.833 C 887.433 214.833 896.213 222.443 896.213 236.783 L 896.213 239.123 L 855.233 242.343 C 820.113 244.973 801.083 261.663 801.083 288.583 C 801.083 317.263 820.403 335.413 851.423 335.413 C 873.373 335.413 892.693 325.753 897.373 312.293 L 900.303 331.613 L 940.113 331.613 L 940.113 246.153 L 940.113 246.153 Z M 896.503 276.893 C 896.503 293.573 884.503 302.063 867.233 302.063 C 853.473 302.063 847.033 297.083 847.033 286.553 C 847.033 277.193 854.053 272.793 873.673 271.043 L 896.503 268.993 L 896.503 276.893 Z" style="fill: #fff; stroke-width: 0px;"/>
    <path d="M 1115.793 153.153 L 1070.213 153.153 L 1034.523 212.243 C 1026.563 197.533 1020.293 186.683 1013.783 176.553 L 998.833 153.163 L 952.283 153.163 L 1009.683 242.393 L 950.113 331.623 L 995.933 331.623 L 1034.283 272.293 C 1042.963 288.213 1048.753 298.823 1057.683 313.053 L 1069.503 331.623 L 1115.803 331.623 L 1059.373 242.393 L 1115.803 153.163 L 1115.793 153.153 Z" style="fill: #fff; stroke-width: 0px;"/>
    <path d="M 113.903 150.183 C 113.903 148.313 113.533 146.523 112.883 144.873 C 132.743 134.873 175.403 116.253 233.533 106.883 C 306.163 95.193 417.933 96.163 543.093 164.333 C 542.343 166.083 541.923 168.013 541.923 170.043 C 541.923 178.043 548.403 184.523 556.403 184.523 C 564.403 184.523 570.883 178.043 570.883 170.043 C 570.883 162.043 564.403 155.563 556.403 155.563 C 551.543 155.563 547.243 157.973 544.623 161.643 C 418.623 92.993 306.053 92.023 232.913 103.853 C 174.473 113.293 131.523 132.023 111.473 142.133 C 108.873 138.253 104.453 135.693 99.433 135.693 C 91.443 135.693 84.953 142.173 84.953 150.173 C 84.953 158.173 91.433 164.653 99.433 164.653 C 107.433 164.653 113.913 158.173 113.913 150.173 L 113.903 150.183 Z" style="fill: #fff; stroke-width: 0px;"/>
    <path d="M 954.573 340.913 C 946.583 340.913 940.113 347.383 940.113 355.373 C 940.113 363.363 946.583 369.833 954.573 369.833 C 962.563 369.833 969.033 363.363 969.033 355.373 C 969.033 347.383 962.563 340.913 954.573 340.913 Z" style="fill: #fff; stroke-width: 0px;"/>
    <path d="M 736.893 207.233 L 734.553 185.573 L 692.113 185.573 L 692.113 331.623 L 737.193 331.623 L 737.193 268.113 C 737.193 239.143 752.703 227.723 778.463 227.723 L 792.803 227.723 L 792.803 185.283 C 786.653 183.823 780.803 183.233 775.533 183.233 C 755.923 183.233 743.043 192.893 736.903 207.233 L 736.893 207.233 Z" style="fill: #fff; stroke-width: 0px;"/>
    <polygon points="646.703 153.153 601.633 153.153 601.633 185.533 582.913 185.533 582.913 222.993 601.633 222.993 601.633 331.623 646.703 331.623 646.703 222.993 680.193 222.993 680.193 185.533 646.703 185.533 646.703 153.153" style="fill: #fff; stroke-width: 0px;"/>
  </g>
</svg>
