<?xml version="1.0" encoding="UTF-8"?>
<svg id="uuid-8e03a170-71c3-45d8-8b5f-a27485dcfafc" data-name="Camada 1" xmlns="http://www.w3.org/2000/svg" viewBox="0 0 1920 1920">
  <path d="M1020.53,894.22l-105.13-21.74c-49.27-10.37-71.02-31.32-71.02-73.81,0-18.55,6.39-34.31,18.35-46.48,17.36-18.15,46.68-28.33,83.99-28.33,54.9,0,90.93,48.31,94.47,95.35.32,4.25,3.63,7.59,7.9,7.59h139.08c3.13,0,5.73-2.64,5.67-5.77-2.71-129.79-96.89-233.63-245.32-233.63-71.82,0-133.86,20.55-178.95,55.86-49.47,38.5-78.61,94.76-78.61,160.99,0,40.9,8.18,76.01,24.34,105.53,3.19,6.18,6.98,12.17,10.97,17.76,17.96,25.34,42.69,45.88,74.22,61.44,7.38,3.79,15.36,7.18,23.54,10.17,17.16,6.78,35.91,12.17,56.45,16.36l106.93,21.75c46.48,9.58,64.44,29.33,64.44,68.23,0,26.73-15.56,47.28-43.09,59.25-18.35,8.38-41.9,12.77-69.62,12.77-14.96,0-28.13-1.79-39.7-5.19-12.37-3.59-22.75-8.78-31.52-15.56-8.38-6.18-15.16-13.77-20.75-22.14-6.28-9.14-10.92-19.37-14.46-30.51-.32-.99-1.13-1.77-2.13-2.05-14.16-3.89-27.6-8.33-40.66-13.32-11.77-4.39-22.95-9.38-33.12-14.56-15.85-7.81-30.77-16.76-44.57-26.79-12.12-8.81-28.79,1.31-27.17,16.21,10.89,100.08,46.88,203.38,162.12,238.01,6.58,1.99,13.57,3.79,20.75,5.39,9.97,2.2,20.55,3.79,31.52,4.99,12.17,1.4,25.14,2,38.7,2,64.04,0,119.5-13.96,162.99-39.5,65.64-38.3,104.14-102.74,104.14-184.13,0-110.72-59.65-170.57-184.74-196.11Z" style="fill: #fff; stroke-width: 0px;"/>
  <circle cx="1295.92" cy="714.29" r="46.8" style="fill: #fff; stroke-width: 0px;"/>
</svg>