<?xml version="1.0" encoding="utf-8"?>
<svg viewBox="0 0 500 500" xmlns="http://www.w3.org/2000/svg">
  <rect y="-1.593" width="500" height="503.185" style="stroke-width: 0px; stroke: rgb(0, 0, 0); fill: rgb(60, 60, 60);"/>
  <path d="M 152.14 180.526 C 152.14 103.338 233.69 55.095 298.93 93.69 C 329.201 111.606 347.86 144.696 347.86 180.526 C 347.86 257.714 266.311 305.957 201.07 267.363 C 170.777 249.447 152.14 216.357 152.14 180.526 Z M 70.611 494.827 C 72.743 353.331 223.578 267.274 342.098 339.938 C 395.399 372.605 428.411 431.187 429.39 494.827 C 429.498 501.467 425.757 507.55 419.886 510.313 C 366.584 535.36 308.63 548.284 250 548.195 C 189.414 548.195 131.85 534.647 80.115 510.313 C 74.221 507.55 70.48 501.467 70.611 494.827 Z" fill-rule="evenodd" clip-rule="evenodd" style="fill: rgb(255, 255, 255);"/>
</svg>